<svg xmlns="http://www.w3.org/2000/svg" xmlns:xlink="http://www.w3.org/1999/xlink" viewBox="0 0 48 48"><defs><linearGradient id="a" x1="24" y1="45.4" x2="24" y2="2.93" gradientUnits="userSpaceOnUse"><stop offset="0" stop-color="#ff7300"/><stop offset="0.18" stop-color="#f97c01"/><stop offset="0.47" stop-color="#ea9602"/><stop offset="0.55" stop-color="#e59e03"/><stop offset="0.87" stop-color="#e5c500"/><stop offset="0.99" stop-color="#bf6f00"/></linearGradient><filter id="c" x="0" y="0" width="48" height="48" filterUnits="userSpaceOnUse" color-interpolation-filters="sRGB"><feFlood flood-color="#fff" result="bg"/><feBlend in="SourceGraphic" in2="bg"/></filter><mask id="b" x="0" y="0" width="48" height="48" maskUnits="userSpaceOnUse"><g filter="url(#c)"><path d="M34,40H14a6,6,0,0,1-6-6V15.18" fill="none" stroke="#000" stroke-linecap="round" stroke-miterlimit="10" stroke-width="4"/><polygon points="12.99 16.64 8 8 3.01 16.64 12.99 16.64"/><path d="M14,8H34a6,6,0,0,1,6,6V32.82" fill="none" stroke="#000" stroke-linecap="round" stroke-miterlimit="10" stroke-width="4"/><polygon points="35.01 31.36 40 40 44.99 31.36 35.01 31.36"/><path d="M18,24l4,4,8-8" fill="none" stroke="#000" stroke-linecap="round" stroke-linejoin="round" stroke-width="4"/></g></mask></defs><title>reusable-ui mini colorful</title><rect x="2" y="2" width="44" height="44" rx="9" fill="url(#a)"/><g mask="url(#b)"><rect width="48" height="48" rx="10" fill="#2e3192"/></g></svg>